<svg xmlns="http://www.w3.org/2000/svg" xmlns:xlink="http://www.w3.org/1999/xlink" width="238" height="232" fill="none" xmlns:v="https://vecta.io/nano"><g clip-path="url(#V)"><path opacity=".18" d="M53.845 29.002c-12.595 5.051-26.056 8.531-37.149 16.35S-2.785 67.015.871 80.101c2.837 10.134 12.294 18.058 12.724 28.587.343 8.394-5.197 15.724-8.139 23.59-5.942 15.893-.804 34.405 9.712 47.698s25.674 22.136 41.203 28.907a229.86 229.86 0 0 0 117.006 17.656c11.885-1.337 23.875-3.683 34.41-9.352s19.544-15.063 22.489-26.675c4.007-15.775-3.488-32.802.609-48.553 1.604-6.178 4.928-11.819 6.344-18.043 3.407-15.001-4.893-30.323-15.451-41.489s-23.59-19.908-33.243-31.871c-6.687-8.284-11.588-17.922-18.463-26.05C156.563 8.512 134.748-.926 113.819.075c-20.792.989-40.367 21.057-59.974 28.927z" fill="#41b783"/><path d="M46.743 211.365l.597 2.713c-3.878 2.819-8.845 3.492-13.512 4.575s-9.614 2.963-12.021 7.111c3.469 4.504 9.93 5.048 15.607 5.196a3049.5 3049.5 0 0 0 137.409.493c14.538-.278 29.158-.665 43.426-3.468 1.023-.2 2.166-.497 2.677-1.408.874-1.563-.78-3.311-2.29-4.226a31.62 31.62 0 0 0-16.587-4.508c-2.193.028-5.072-.207-5.575-2.345-.172-.782.062-1.564.035-2.346-.063-1.955-1.737-3.519-3.574-4.105s-3.828-.391-5.752-.215c-36.251 3.495-73.06.782-109.432-1.079-5.767-.297-11.19 2.869-16.918 2.134-5.377-.68-9.267-1.736-14.089 1.478z" fill="url(#A)"/><use xlink:href="#W" fill="#41b783"/><use xlink:href="#W" fill="url(#B)"/><path d="M120.389 148.194l-75.999-.481c-2.881-.016-5.651 1.116-7.699 3.146a10.9 10.9 0 0 0-3.225 7.68l-.07 11.22a10.91 10.91 0 0 0 .801 4.175 10.89 10.89 0 0 0 2.334 3.55 10.86 10.86 0 0 0 3.513 2.385c1.316.556 2.728.847 4.156.857l72.074.449a18.43 18.43 0 0 1 12.719 5.235l2.018 1.955.113-17.984.027-4.301.043-6.928a10.9 10.9 0 0 0-3.14-7.715c-2.026-2.053-4.783-3.215-7.664-3.232v-.011z" fill="url(#C)"/><use xlink:href="#X" fill="#41b783"/><use xlink:href="#X" opacity=".69" fill="url(#D)"/><path opacity=".6" d="M119.616 43.514c.355-1.564.711-3.128.57-4.723a6.59 6.59 0 0 1-4.627 1.998 1.03 1.03 0 0 0-.601.113 1.02 1.02 0 0 0-.263.406c-.054.154-.069.32-.046.482 0 1.92-.031 3.945-1.01 5.591s-2.665 2.58-4.425 3.128c-3.901 1.243-8.111.7-12.15.074-.925-.145-1.892-.309-2.626-.888-.995-.782-1.334-2.174-1.202-3.433s.671-2.436 1.171-3.609c.78-1.857 1.416-3.839 1.21-5.837s-1.475-4.003-3.418-4.496a2.49 2.49 0 0 0-2.38.52 3.52 3.52 0 0 0-.695 1.173 46.89 46.89 0 0 0-3.184 12.757c-2.255-.211-4.405.938-6.633 1.251-1.432.203-21.226.305-22.665.207 0 0-.203 2.279.332 3.014s3.437.747 4.292 1.071c6.083 2.346 12.774 2.193 19.259 2.788 11.073 1.013 24.382 4.563 34.16-2.6 3.039-2.228 4.12-5.415 4.931-8.988z" fill="url(#E)"/><path opacity=".6" d="M134.896 96.016c.191-3.726-.917-7.405-2.415-10.822s-3.383-6.646-4.874-10.067c-.39-.864-.655-2.045.102-2.604.234.586 1.143.418 1.596-.024s.78-1.075 1.408-1.22c.897 1.452 1.666 2.98 2.298 4.566l4.433 10.165c.472 1.087.967 2.209 1.861 2.983 1.385 1.196 3.422 1.31 5.197 1.267 1.177-.032 2.351-.15 3.512-.352 1.299-.227 2.77-.602 3.535-1.712 1.17-1.72.054-4.164.78-6.122a4.96 4.96 0 0 1 1.6-2.049c.901-.731 2.142-1.302 3.195-.813.523.293.962.716 1.276 1.228 2.731 3.816 4.257 8.492 7.562 11.811a7.54 7.54 0 0 0 5.103-2.064c1.335-1.271 2.341-2.842 3.383-4.355 1.795-2.596 3.757-5.082 5.72-7.538l2.115-2.662a.51.51 0 0 1 .242-.195c.242-.062.39.246.46.493.78 3.593-1.584 7.08-4.12 9.731-1.951 2.045-4.187 4.019-5.56 6.439a1.73 1.73 0 0 0-.215.647c-.028.228-.012.459.049.68s.165.428.306.609.316.332.515.445a1.76 1.76 0 0 0 .71.223c4.628.391 9.365-.52 14.023.047 1.409.172 3.059.7 3.29 2.189a2.36 2.36 0 0 1-.141 1.113 2.34 2.34 0 0 1-.64.92c-.991.946-2.341 1.134-3.652 1.294-14.76 1.818-29.653 2.346-44.511 2.834-.586.054-1.176.005-1.744-.144-1.233-.391-1.951-1.658-2.65-2.737-1.041-1.575-2.304-2.99-3.749-4.203z" fill="url(#F)"/><path d="M210.637 106.893v9.914c.007 1.258-.233 2.505-.707 3.67s-1.172 2.225-2.054 3.119a9.56 9.56 0 0 1-3.09 2.095c-1.157.488-2.398.742-3.654.75h-63.06a15.91 15.91 0 0 0-11.175 4.531l-1.771 1.716v-25.803a9.63 9.63 0 0 1 1.826-5.668 9.6 9.6 0 0 1 4.807-3.504c.934-.301 1.91-.454 2.891-.454h66.486a9.54 9.54 0 0 1 3.654.75c1.156.488 2.206 1.2 3.088 2.095s1.58 1.954 2.054 3.119.713 2.412.705 3.67z" fill="url(#G)"/><path d="M107.615 60.032l1.638 25.131h-1.638l-1.741-1.677c-2.957-2.842-7.46-3.859-11.553-3.859H32.33c-2.484 0-4.865-.989-6.622-2.748s-2.743-4.146-2.743-6.635l.581-10.212c0-2.488.987-4.875 2.743-6.635s4.138-2.748 6.622-2.748h65.355c1.523-.003 3.024.367 4.372 1.079a9.33 9.33 0 0 1 3.357 3.006 9.29 9.29 0 0 1 1.62 5.297z" fill="url(#H)"/><g fill="#fff"><path d="M109.249 60.032v25.131l-1.744-1.677a15.82 15.82 0 0 0-10.979-4.429H34.515a9.36 9.36 0 0 1-6.622-2.748 9.39 9.39 0 0 1-2.743-6.635v-9.641a9.39 9.39 0 0 1 2.743-6.635c1.756-1.76 4.138-2.748 6.622-2.748h65.37a9.32 9.32 0 0 1 4.372 1.08c1.347.712 2.5 1.744 3.358 3.005 1.07 1.558 1.641 3.406 1.634 5.297zm101.388 46.055v9.637c0 2.489-.987 4.875-2.743 6.635s-4.138 2.748-6.621 2.748h-61.98c-4.094.001-8.03 1.588-10.983 4.43l-1.756 1.665v-25.115a9.39 9.39 0 0 1 2.729-6.621c1.747-1.758 4.119-2.752 6.596-2.762h65.405c2.482.003 4.861.993 6.614 2.752a9.39 9.39 0 0 1 2.739 6.63z"/></g><path d="M142.067 94.796c-.39-.782-1.014-1.376-1.397-2.135-.819-1.619-.339-3.628.629-5.161.39-.637.897-1.251 1.041-1.99.168-.868-.167-1.814.195-2.62.297-.649.968-1.024 1.561-1.439.901-.645 1.682-1.49 2.7-1.92s2.431-.274 2.93.719c.941-.465 2.131-.043 2.833.731s1.015 1.83 1.229 2.854c.184 1.175.452 2.336.804 3.472.413 1.114 1.139 2.174 2.212 2.678 2.084.977 4.987-.289 6.633 1.337.843.841 1.143 2.326 2.287 2.647.589.164 1.229-.051 1.814.106 1.011.274 1.428 1.497 1.451 2.545.017 1.027-.177 2.047-.571 2.996a7.47 7.47 0 0 1-1.719 2.517c-.726.691-1.654 1.337-1.803 2.345-.015.511.024 1.022.118 1.525.055.676-.085 1.353-.405 1.951a3.51 3.51 0 0 1-1.397 1.418c-.592.328-1.267.478-1.942.431s-1.322-.289-1.863-.696c-.828-.617-1.526-1.654-2.556-1.607a2.82 2.82 0 0 0-1.249.501c-.81.555-1.706.971-2.653 1.231-.475.126-.974.134-1.453.023s-.924-.335-1.297-.656c-.586-.575-.804-1.411-1.089-2.185-.46-1.252-1.299-2.538-2.606-2.788-.562-.106-1.144 0-1.706-.094-3.808-.614-1.572-6.396-2.731-8.738z" fill="#3f3d56"/><path d="M172.564 81.656a17.87 17.87 0 0 0 2.122-4.887c.2-.724.531-1.405.976-2.01.043-.061.106-.105.178-.127a.34.34 0 0 1 .218.008c.069.027.128.076.168.14a.34.34 0 0 1 .048.213l-.156 1.564c.78-.907 1.705-2.569 3.012-3.949.036-.035.084-.055.135-.055a.19.19 0 0 1 .134.055c.025.026.042.058.05.094a.2.2 0 0 1-.007.106l-1.053 2.647c-.004.013-.006.027-.005.041s.006.028.012.04.016.023.026.032.024.016.037.02c.019.006.04.006.059 0s.037-.017.05-.032l1.561-2.107c.847-.61.749.285.671.496l-1.018 1.955c-.012.027-.014.057-.006.085s.024.053.048.07.052.026.082.025.057-.013.079-.032a13.95 13.95 0 0 1 1.416-1.22c.061-.041.135-.06.208-.055s.143.036.197.086.09.117.102.19-.003.148-.039.212l-1.56 2.185c-.188.262-.348.415-.028.391l1.124-.414c.335-.133.175.637-.117.844-1.635 1.173-2.298 2.088-3.43 3.061s-8.392 12.972-11.705 17.226c-1.206 1.545-3.512 2.573-4.444.086-.699-1.884 1.443-3.648 2.474-5.012 2.954-3.865 5.748-7.857 8.381-11.975z" fill="url(#I)"/><path d="M121.961 148.194l-75.998-.481c-2.881-.016-5.651 1.116-7.699 3.146a10.9 10.9 0 0 0-3.225 7.68l-.07 11.22c-.009 1.431.263 2.85.801 4.175a10.89 10.89 0 0 0 2.334 3.55 10.86 10.86 0 0 0 3.513 2.385c1.316.556 2.728.847 4.156.857l72.061.449a18.43 18.43 0 0 1 12.74 5.235l2.017 1.955.113-17.984.027-4.301.043-6.928a10.9 10.9 0 0 0-3.14-7.715c-2.026-2.053-4.782-3.215-7.664-3.232l-.008-.011z" fill="#fff"/><path d="M108.582 19.849h24.745a1.17 1.17 0 0 1 .828.343c.219.22.343.518.343.829s-.124.609-.343.829a1.17 1.17 0 0 1-.828.343h-24.745a1.17 1.17 0 0 1-1.17-1.173 1.17 1.17 0 0 1 1.17-1.173z" fill="url(#J)"/><path d="M108.403 60.65c-2.06.891-2.423.751-4.628 1.138s-3.929.106-6.028-.68c-1.44 4.402-2.969 9.211-3.359 13.824a30.67 30.67 0 0 1-.667 4.125H80.454c-.039-.297-.074-.602-.105-.919-.35-4.248-.302-8.519.144-12.757.036-.259.058-.52.066-.782.01-.213-.006-.427-.047-.637a4.24 4.24 0 0 0-.554-1.271c-.527-.927-1.799-2.346-2.505-3.374a10.16 10.16 0 0 1-.25-.391c.425-1.955 2.302-2.913 3.176-4.692.648-1.36 1.568-2.573 2.704-3.562a8.44 8.44 0 0 1 1.171-.829c1.498-.872 3.227-1.22 4.951-1.482l.804-.117a7.06 7.06 0 0 0 3.789 1.353 5.03 5.03 0 0 1 1.28.137 3.67 3.67 0 0 1 .983.563l.523.391 2.88 2.064a14.2 14.2 0 0 0 2.118 1.337c2.408 1.142 3.403 1.036 6.048.7.308 1.669.621 4.136.773 5.861z" fill="#41b783"/><path d="M89.187 48.248c-.691.637 1.319 2.838 2.048 3.433s1.838.59 2.763.317c.616-.18 1.272-.528 1.44-1.153a3.11 3.11 0 0 0-.121-1.325c-.168-.919 0-1.885-.25-2.791a4.42 4.42 0 0 0-1.619-2.279c-.722-.567-2.669-2.072-3.071-.567-.437 1.603.425 2.866-1.19 4.367z" fill="url(#K)"/><path d="M89.031 79.056h-8.194c-.152-.315-.32-.621-.503-.919a.95.95 0 0 0-.137-.168c-.359-.38-.609-.85-.722-1.361-1.053-3.642-.882-7.53.488-11.064.125-.355.323-.68.581-.954.421-.45.897-.669 1.346-1.497.886-1.63 2.575-4.41 3.41-6.064.332 3.21-.913 6.185-.78 9.407.066 1.877.136 3.784.78 5.552.534 1.459 1.378 2.783 2.474 3.882.406.465 1.042 2.002 1.256 3.186z" fill="url(#L)"/><path d="M107.615 54.762l.663 4.758c-.027-.289 9.852-2.987 12.673-12.358a3.62 3.62 0 0 1 .78-.817c3.512-2.627 4.058-3.734 3.008-3.089a2.77 2.77 0 0 1-1.857.473 9 9 0 0 0 1.073-1.071c.414-.504 1.319-1.024 1.541-1.634.033-.068.046-.144.039-.219-.02-.07-.065-.131-.125-.172s-.134-.059-.206-.051c-.141.02-.274.074-.39.156a14.18 14.18 0 0 0-1.518 1.095c-.301.246-1.128.579-.843 0 .445-.919 1.432-1.529 1.693-2.514.022-.055.032-.114.028-.173s-.022-.116-.051-.167c-.101-.125-.304-.086-.453 0-.534.242-2.146 2.459-2.54 2.408s.426-2.369.457-2.815c0-.121 0-.266-.105-.325-.058-.021-.12-.024-.179-.008s-.111.05-.149.098c-1.03.852-1.171 2.346-1.834 3.519-.088.198-.249.355-.449.438-.425.125-.78-.36-1.213-.457-.077-.027-.161-.027-.238 0-.238.106-.203.477-.059.696 1.951 2.979-3.016 10.145-9.746 12.229z" fill="url(#M)"/><path d="M78.562 59.868s-2.049 16.522-.48 19.188h3.406c-.698-5.309-.566-10.695.39-15.963 0 0-.3-2.6-3.316-3.225z" fill="url(#N)"/><g fill="#41b783"><path opacity=".32" d="M67.996 58.91H32.217c-1.211 0-2.193.984-2.193 2.197v.004c0 1.214.982 2.197 2.193 2.197h35.779c1.211 0 2.193-.984 2.193-2.197v-.004c0-1.214-.982-2.197-2.193-2.197zm0 9.004H32.217c-1.211 0-2.193.984-2.193 2.197v.004c0 1.213.982 2.197 2.193 2.197h35.779c1.211 0 2.193-.984 2.193-2.197v-.004c0-1.214-.982-2.197-2.193-2.197zm134.506 39.831h-35.779c-.582 0-1.141-.232-1.552-.644a2.2 2.2 0 0 1-.003-3.107 2.18 2.18 0 0 1 1.551-.644h35.783a2.18 2.18 0 0 1 1.55.644 2.2 2.2 0 0 1 .643 1.554c0 .582-.231 1.141-.643 1.553a2.19 2.19 0 0 1-1.55.644zm0 9.004h-35.779c-.582 0-1.141-.232-1.552-.644a2.2 2.2 0 0 1-.645-1.554 2.21 2.21 0 0 1 .169-.838c.111-.266.274-.507.478-.71a2.17 2.17 0 0 1 .711-.473c.266-.109.551-.165.839-.164h35.779c.581 0 1.139.231 1.55.644a2.2 2.2 0 0 1 .643 1.553 2.18 2.18 0 0 1-.648 1.545c-.411.409-.966.64-1.545.641zm-100.756 42.568H65.971c-.582 0-1.14-.232-1.552-.644s-.644-.971-.645-1.554a2.2 2.2 0 0 1 .643-1.556c.412-.413.971-.645 1.553-.645h35.775a2.19 2.19 0 0 1 1.551.644 2.2 2.2 0 0 1 .642 1.553 2.19 2.19 0 0 1-.165.842c-.11.266-.271.509-.474.713a2.2 2.2 0 0 1-1.55.647h-.004zm.004 5.649H65.971c-1.211 0-2.193.984-2.193 2.197v.004c0 1.213.982 2.197 2.193 2.197h35.779c1.211 0 2.193-.984 2.193-2.197v-.004c0-1.213-.982-2.197-2.193-2.197z"/><path d="M164.401 100.188c-.261.738-.702 1.4-1.284 1.923-1.088.997-2.469 1.623-3.542 2.635-2.381 2.244-2.775 5.83-3.024 9.094l-.87 11.268h-16.388a15.9 15.9 0 0 0-3.492.391l.546-9.071c.289-5.68.301-11.928-3.312-16.318-.375-.357-.634-.819-.742-1.326-.046-.583.348-1.099.718-1.564.024-.023.039-.047.063-.074l2.411-2.952c.122-.197.282-.368.471-.502s.403-.229.629-.279a1.56 1.56 0 0 1 1.042.493c.929.847 1.775 1.78 2.528 2.787l1.495 1.869c2.431 2.878 6.141 4.903 9.645 2.596a68.99 68.99 0 0 1 7.507-4.429 37.58 37.58 0 0 1 3.711-1.564c-.075.606.249 1.099.651 1.564.432.441.812.93 1.132 1.458a2.62 2.62 0 0 1 .251.99c.018.344-.031.687-.146 1.012z"/></g><path d="M135.824 97.017a6.47 6.47 0 0 0 .703-4.426c-.301-1.496-.78-2.951-1.428-4.332l-4.113-9.774c-.37-.797-.656-1.63-.854-2.487-.285-1.462-.055-2.971.175-4.441a1.06 1.06 0 0 0-.78.078 1.99 1.99 0 0 1-.236 1.141c-.19.348-.481.632-.833.813a10.87 10.87 0 0 0-1.951-4.042l.226 3.284-2.583-2.643c-.667 1.173 1.733 2.42 1.171 3.656l-2.833-2.045c-.207 1.392 2.041 2.049 2.162 3.456l-2.033-.95c.429 1.052 1.424 1.736 2.212 2.557 2.895 3.053 2.895 7.78 4.706 11.576 1.038 2.185 2.15 3.972 2.618 6.361.351 1.794 1.892 5.082 3.671 2.217z" fill="url(#O)"/><g fill="#41b783"><use xlink:href="#Y"/><path d="M83.853 118.919c1.696 0 3.071-1.378 3.071-3.077s-1.375-3.077-3.071-3.077-3.071 1.377-3.071 3.077 1.375 3.077 3.071 3.077zm9.438 0c1.696 0 3.071-1.378 3.071-3.077s-1.375-3.077-3.071-3.077-3.071 1.377-3.071 3.077 1.375 3.077 3.071 3.077zm56.631 52.201c1.695 0 3.07-1.378 3.07-3.077s-1.375-3.077-3.07-3.077-3.071 1.377-3.071 3.077 1.375 3.077 3.071 3.077zm9.434 0c1.696 0 3.071-1.378 3.071-3.077s-1.375-3.077-3.071-3.077-3.071 1.377-3.071 3.077 1.375 3.077 3.071 3.077zm9.434 0c1.696 0 3.071-1.378 3.071-3.077s-1.375-3.077-3.071-3.077-3.07 1.377-3.07 3.077 1.375 3.077 3.07 3.077zM137.412 66.381c1.696 0 3.071-1.378 3.071-3.077s-1.375-3.077-3.071-3.077-3.07 1.378-3.07 3.077 1.375 3.077 3.07 3.077zm9.439 0c1.696 0 3.071-1.378 3.071-3.077s-1.375-3.077-3.071-3.077-3.071 1.378-3.071 3.077 1.375 3.077 3.071 3.077zm9.434 0c1.696 0 3.071-1.378 3.071-3.077s-1.375-3.077-3.071-3.077-3.07 1.378-3.07 3.077 1.374 3.077 3.07 3.077z"/></g><path d="M100.993 43.705c-.421 1.47-1.116 2.917-2.29 3.91a5.28 5.28 0 0 1-5.857.617c-.927-.491-1.688-1.247-2.185-2.172s-.709-1.978-.608-3.024c0-.121 0-.27-.086-.34-.091-.031-.19-.031-.281 0-.574.059-.999-.536-1.171-1.083-.156-.414-.195-.863-.113-1.298a1.25 1.25 0 0 1 .29-.579c.146-.164.332-.287.541-.355a.85.85 0 0 1 1.038.559c.081-.814.348-1.598.78-2.291a8.65 8.65 0 0 1 1.748-2.424c.77-.651 1.704-1.078 2.699-1.235a5.51 5.51 0 0 1 2.947.343 6.29 6.29 0 0 1 2.188 1.515c.613.655 1.079 1.435 1.367 2.285.226.782-.105 1.458-.258 2.221l-.749 3.35z" fill="url(#P)"/><path d="M90.544 40.68c-.023.032-.053.057-.088.076s-.072.03-.111.033c-.152 0-.191-.211-.203-.36.004-.367-.137-.721-.39-.985-.063-.063-.137-.113-.219-.147a.67.67 0 0 0-.259-.052c-.089 0-.177.018-.259.052s-.157.084-.219.147a7.29 7.29 0 0 1 1.03-4.946c.113-.141.187-.31.215-.489 0-.231-.133-.457-.09-.684a.83.83 0 0 1 .285-.414 4.08 4.08 0 0 1 1.455-.97 1.79 1.79 0 0 1 1.658.188c1.243-.735 2.657-1.13 4.101-1.146.838-.018 1.673.124 2.458.418a6.16 6.16 0 0 1 3.211 3.077c.635 1.389.867 2.93.667 4.445-1.267.574-2.708.627-4.013.147a5.31 5.31 0 0 1-2.967-2.712 3.23 3.23 0 0 0 .191 1.822 3.41 3.41 0 0 1-1.209-1.003 3.42 3.42 0 0 1-.632-1.44c-.293-.274-.737.074-.979.391-.624.825-1.202 1.794-1.951 2.502a5.97 5.97 0 0 0-.925.856c-.3.367-.425.84-.757 1.192z" fill="#3f3d56"/><path d="M150.764 101.318c-.136 1.09-1.151 2.029-2.255 2.294-.28.075-.57.098-.858.071-1.561-.16-2.271-2.092-2.24-3.667s.39-3.183-.328-4.524c0-.043-.043-.086-.066-.129-.39-.692-1.073-1.208-1.42-1.931a4.44 4.44 0 0 1-.203-2.569c.464-3.268 3.02-11.905 7.944-8.672 1.276.837 2.036 2.283 2.473 3.745 1.546 5.157-1.755 5.067-3.047 15.381z" fill="url(#Q)"/><path d="M149.387 83.247c.659.391.987 1.173 1.135 1.955.426 2.17-.265 4.383-.651 6.56s-.39 4.692 1.135 6.294l.035.039a3.12 3.12 0 0 0 2.199.935c.827.007 1.624-.315 2.214-.896a3.07 3.07 0 0 0 .691-1.016c.074-.168.16-.332.25-.493.593-1.052 1.42-1.955 2.009-3.01a9.31 9.31 0 0 0 .983-2.842c.217-1.013.224-2.061.02-3.077-.39-1.705-1.561-3.128-2.786-4.344s-2.47-2.24-4.019-2.78-3.398-.453-4.682.559c-.39.313-1.463 1.564-.905 2.111.472.422 1.681-.418 2.372.004z" fill="#3f3d56"/><path d="M78.964 59.868l-1.783-.958 1.291 1.763.086-.805h.406z" fill="url(#R)"/><path d="M97.747 61.107a1.79 1.79 0 0 1 .625-1.15 1.78 1.78 0 0 1 1.24-.414c1.748-.051 8.529-.946 8.529-.946l.262 2.064s-5.997 2.541-10.656.446z" fill="url(#S)"/><g fill="#fff"><path opacity=".18" d="M107.615 54.762v.915s-5.927 1.599-12.182-4.852l-.39-1.106a3.67 3.67 0 0 1 .983.563l.523.391 2.88 2.064a14.17 14.17 0 0 0 2.118 1.337c2.408 1.142 3.403 1.036 6.048.7l.02-.012zm-18.105-5.04s-6.161-.301-9.087 6.736c-.628 1.501-2.173 3.034-2.173 3.034l-.812-.172a10.04 10.04 0 0 1-.25-.391c.425-1.955 2.302-2.913 3.176-4.691a10.98 10.98 0 0 1 2.704-3.562 8.44 8.44 0 0 1 1.17-.829c1.498-.872 3.227-1.22 4.951-1.482l.32 1.357z"/></g><path d="M164.401 100.188a4.69 4.69 0 0 1-1.284 1.923c-1.088.997-2.47 1.623-3.543 2.635-2.38 2.244-2.774 5.829-3.023 9.094l-.871 11.267H143.3l8.584-17.366c1.838-3.636 7.456-6.029 7.456-6.029 4.378-3.401 5.061-1.524 5.061-1.524z" fill="url(#T)"/><path d="M148.704 103.421c-.055.073-.121.138-.195.191a2.46 2.46 0 0 1-.858.071c-1.561-.16-2.271-2.092-2.24-3.667s.613-3.097-.691-5.083c.683.496 1.588.805 3.571.934 1.432.078.573 7.346.413 7.554z" fill="url(#U)"/></g><defs><linearGradient id="A" x1="123.503" y1="253.949" x2="116.444" y2="155.323" xlink:href="#Z"><stop stop-opacity="0"/><stop offset=".49" stop-opacity=".2"/><stop offset=".52" stop-opacity=".23"/><stop offset=".99"/></linearGradient><linearGradient id="B" x1="111.407" y1="378.345" x2="119.606" y2="92.866" xlink:href="#Z"><stop offset=".01"/><stop offset="1" stop-opacity="0"/></linearGradient><linearGradient id="C" x1="29995.7" y1="21800.8" x2="30221.7" y2="28820.7" xlink:href="#Z"><stop offset=".01"/><stop offset="1" stop-opacity="0"/></linearGradient><linearGradient id="D" x1="120.393" y1="316.663" x2="118.708" y2="-30.964" xlink:href="#Z"><stop offset=".02" stop-color="#fff" stop-opacity="0"/><stop offset=".58" stop-color="#fff" stop-opacity=".39"/><stop offset=".68" stop-color="#fff" stop-opacity=".68"/><stop offset="1" stop-color="#fff"/></linearGradient><linearGradient id="E" x1="88.317" y1="29.995" x2="89.312" y2="199.073" xlink:href="#Z"><stop stop-opacity="0"/><stop offset=".99"/></linearGradient><linearGradient id="F" x1="26783" y1="13511.5" x2="26292.8" y2="-4684.46" xlink:href="#Z"><stop stop-opacity="0"/><stop offset=".99"/></linearGradient><linearGradient id="G" x1="45952.4" y1="13484.5" x2="45783" y2="19616" xlink:href="#Z"><stop offset=".01"/><stop offset="1" stop-opacity="0"/></linearGradient><linearGradient id="H" x1="22769.7" y1="9156.18" x2="22892.8" y2="14726.5" xlink:href="#Z"><stop offset=".01"/><stop offset="1" stop-opacity="0"/></linearGradient><linearGradient id="I" x1="161.572" y1="86.352" x2="181.912" y2="86.352" xlink:href="#Z"><stop stop-color="#ecc4d7"/><stop offset=".42" stop-color="#efd4d1"/><stop offset="1" stop-color="#f2eac9"/></linearGradient><linearGradient id="J" x1="8503.82" y1="1339.13" x2="8503.82" y2="1117.2" xlink:href="#Z"><stop stop-opacity="0"/><stop offset=".99"/></linearGradient><linearGradient id="K" x1="2216.61" y1="2679.39" x2="2315.42" y2="2725.01" xlink:href="#Z"><stop stop-color="#ecc4d7"/><stop offset=".42" stop-color="#efd4d1"/><stop offset="1" stop-color="#f2eac9"/></linearGradient><linearGradient id="L" x1="2381.49" y1="9358.26" x2="1557.77" y2="9280.9" xlink:href="#Z"><stop stop-opacity="0"/><stop offset=".99"/></linearGradient><linearGradient id="M" x1="6854.73" y1="6441.44" x2="7677.91" y2="6441.44" xlink:href="#Z"><stop stop-color="#ecc4d7"/><stop offset=".42" stop-color="#efd4d1"/><stop offset="1" stop-color="#f2eac9"/></linearGradient><linearGradient id="N" x1="1390.51" y1="6838.35" x2="1439.96" y2="6838.35" xlink:href="#Z"><stop stop-color="#ecc4d7"/><stop offset=".42" stop-color="#efd4d1"/><stop offset="1" stop-color="#f2eac9"/></linearGradient><linearGradient id="O" x1="5999.12" y1="11223.7" x2="6514.14" y2="11223.7" xlink:href="#Z"><stop stop-color="#ecc4d7"/><stop offset=".42" stop-color="#efd4d1"/><stop offset="1" stop-color="#f2eac9"/></linearGradient><linearGradient id="P" x1="94.684" y1="36.535" x2="96.557" y2="47.68" xlink:href="#Z"><stop offset=".2" stop-color="#ecc4d7"/><stop offset=".37" stop-color="#f0dcce"/><stop offset="1" stop-color="#f2eac9"/></linearGradient><linearGradient id="Q" x1="5254.46" y1="9242.93" x2="5560.22" y2="9242.93" xlink:href="#Z"><stop stop-color="#ecc4d7"/><stop offset=".42" stop-color="#efd4d1"/><stop offset="1" stop-color="#f2eac9"/></linearGradient><linearGradient id="R" x1="78.8" y1="59.426" x2="77.559" y2="59.894" xlink:href="#Z"><stop stop-color="#68e1fd"/><stop offset=".2" stop-color="#5db4cf"/><stop offset=".46" stop-color="#50819b"/><stop offset=".69" stop-color="#475c76"/><stop offset=".87" stop-color="#41455e"/><stop offset=".99" stop-color="#3f3d56"/></linearGradient><linearGradient id="S" x1="3963.8" y1="1072.83" x2="3950.97" y2="1240.56" xlink:href="#Z"><stop stop-opacity="0"/><stop offset=".99"/></linearGradient><linearGradient id="T" x1="10348" y1="11689" x2="13630.9" y2="13177.5" xlink:href="#Z"><stop stop-opacity="0"/><stop offset=".99"/></linearGradient><linearGradient id="U" x1="2283.43" y1="3828.69" x2="1821.95" y2="3896.2" xlink:href="#Z"><stop stop-color="#ecc4d7"/><stop offset=".42" stop-color="#efd4d1"/><stop offset="1" stop-color="#f2eac9"/></linearGradient><clipPath id="V"><path fill="#fff" d="M0 0h238v232H0z"/></clipPath><path id="W" d="M178.26 14.677H59.752c-7.546 0-13.664 6.13-13.664 13.691v168.778c0 7.562 6.118 13.691 13.664 13.691H178.26c7.546 0 13.664-6.129 13.664-13.691V28.368c0-7.562-6.118-13.691-13.664-13.691z"/><path id="X" d="M182.213 37.235v155.157c-.003 3.222-1.281 6.311-3.555 8.59a12.12 12.12 0 0 1-8.572 3.561H68.745a12.09 12.09 0 0 1-4.639-.925c-1.471-.61-2.807-1.505-3.933-2.633a12.15 12.15 0 0 1-2.628-3.941 12.17 12.17 0 0 1-.923-4.648V37.235a12.17 12.17 0 0 1 .921-4.649 12.15 12.15 0 0 1 2.627-3.942 12.12 12.12 0 0 1 3.932-2.634 12.1 12.1 0 0 1 4.639-.926h101.333c1.593-.001 3.171.313 4.644.923a12.13 12.13 0 0 1 3.937 2.633 12.14 12.14 0 0 1 2.632 3.943c.611 1.475.925 3.056.926 4.652z"/><path id="Y" d="M74.414 118.919c1.696 0 3.071-1.378 3.071-3.077s-1.375-3.077-3.071-3.077-3.071 1.377-3.071 3.077 1.375 3.077 3.071 3.077z"/><linearGradient id="Z" gradientUnits="userSpaceOnUse"/></defs></svg>