<svg width="84" height="84" viewBox="0 0 84 84" fill="none" xmlns="http://www.w3.org/2000/svg">
<g clip-path="url(#clip0)">
<path d="M60.6897 63.7673L49.4056 55.001V51.3304C53.4403 48.9041 56.1461 44.4843 56.1461 39.4432V28.3027C56.1461 23.2009 51.9956 19.0503 46.8938 19.0503H36.5355L35.8228 17.6869C35.5558 17.176 35.0821 16.8014 34.5234 16.6594C33.9645 16.5173 33.3697 16.6202 32.8909 16.9415C30.0931 18.8196 28.4227 21.9527 28.4227 25.3224V39.4431C28.4227 40.8413 28.6308 42.2225 29.0414 43.5483C29.2408 44.1926 29.9247 44.5528 30.5692 44.3537C31.2136 44.1541 31.5741 43.4701 31.3746 42.8258C31.0366 41.7342 30.8653 40.5961 30.8653 39.4431V32.2675C38.3686 30.9811 46.0417 30.9823 53.7036 32.2713V39.4431C53.7036 45.7396 48.581 50.8622 42.2844 50.8622C38.9812 50.8622 35.8402 49.4291 33.6672 46.9304C33.2246 46.4214 32.4531 46.3676 31.9442 46.8104C31.4354 47.253 31.3815 48.0245 31.8242 48.5334C32.6954 49.535 33.6954 50.3946 34.7877 51.0978V55.0009L23.5035 63.7671C19.94 66.5353 17.8962 70.7111 17.8962 75.2234V82.3007C17.8962 82.9752 18.443 83.522 19.1175 83.522C19.792 83.522 20.3388 82.9752 20.3388 82.3007V75.2234C20.3388 71.4708 22.0385 67.9982 25.0019 65.696L35.1351 57.8239C36.0788 60.7691 38.8423 62.9078 42.0967 62.9078C45.3511 62.9078 48.1146 60.7693 49.0582 57.8239L59.1915 65.696C62.1549 67.9982 63.8546 71.4708 63.8546 75.2234V82.3007C63.8546 82.9752 64.4014 83.522 65.0759 83.522C65.7503 83.522 66.2971 82.9752 66.2971 82.3007V75.2234C66.297 70.7114 64.2532 66.5356 60.6897 63.7673V63.7673ZM30.8651 29.7916V25.3228C30.8651 22.9226 31.9828 20.681 33.8774 19.2379L34.7136 20.8376C34.9241 21.2405 35.3411 21.493 35.7958 21.493H46.8937C50.6486 21.493 53.7034 24.5478 53.7034 28.3028V29.7965C46.045 28.5521 38.3762 28.5503 30.8651 29.7916V29.7916ZM42.0965 60.4654C39.4132 60.4654 37.23 58.2823 37.23 55.5989V52.3491C38.823 52.974 40.5349 53.3051 42.2844 53.3051C43.9258 53.3051 45.5008 53.0165 46.9632 52.4906V55.5989C46.963 58.2823 44.7799 60.4654 42.0965 60.4654V60.4654Z" fill="#0F8346"/>
<path d="M28.3157 74.781C27.6413 74.781 27.0945 75.3278 27.0945 76.0023V82.3011C27.0945 82.9756 27.6413 83.5224 28.3157 83.5224C28.9902 83.5224 29.537 82.9756 29.537 82.3011V76.0023C29.537 75.3278 28.9904 74.781 28.3157 74.781Z" fill="#0F8346"/>
<path d="M55.8773 74.781C55.2028 74.781 54.656 75.3278 54.656 76.0023V82.3011C54.656 82.9756 55.2028 83.5224 55.8773 83.5224C56.5517 83.5224 57.0985 82.9756 57.0985 82.3011V76.0023C57.0985 75.3278 56.5517 74.781 55.8773 74.781Z" fill="#0F8346"/>
<path d="M3.17228 67.0135L12.3678 59.0942C12.6373 58.8621 12.7921 58.5242 12.7921 58.1688V55.1553C13.6771 55.5075 14.6408 55.7033 15.6499 55.7033C16.659 55.7033 17.6226 55.5075 18.5076 55.1553V58.1688C18.5076 58.5242 18.6625 58.8621 18.932 59.0942L21.3073 61.1399C21.5378 61.3385 21.8213 61.4357 22.1037 61.4357C22.4468 61.4357 22.7881 61.2919 23.0297 61.0114C23.4699 60.5004 23.4124 59.7292 22.9013 59.2891L20.9502 57.6088V53.6017C22.4597 52.1859 23.4052 50.1757 23.4052 47.9477V44.6155C23.4052 40.3391 19.9261 36.8601 15.6499 36.8601C11.3735 36.8601 7.89435 40.3392 7.89435 44.6155V47.9477C7.89435 50.1757 8.84009 52.1859 10.3496 53.6019V57.6088L1.57828 65.1627C1.02448 65.6398 0.706787 66.3327 0.706787 67.0635V71.3075C0.706787 72.4587 1.52927 73.4422 2.66212 73.6459C6.47768 74.3325 10.3878 74.7172 14.2842 74.7897C14.292 74.7899 14.2996 74.7899 14.3075 74.7899C14.9713 74.7899 15.5155 74.2579 15.5281 73.5914C15.5406 72.9169 15.0042 72.3602 14.3298 72.3477C10.5815 72.2778 6.82045 71.9091 3.14948 71.2518V67.0633C3.14948 67.0443 3.15779 67.026 3.17228 67.0135V67.0135ZM10.337 44.6155C10.337 41.6859 12.7205 39.3026 15.65 39.3026C18.5796 39.3026 20.9629 41.6861 20.9629 44.6155V47.9477C20.9629 50.8773 18.5794 53.2607 15.65 53.2607C12.7205 53.2607 10.337 50.8773 10.337 47.9477V44.6155Z" fill="#0F8346"/>
<path d="M71.7765 58.1688C71.7765 58.5242 71.9314 58.8621 72.2007 59.0941L74.2222 60.835C74.4529 61.0337 74.7364 61.1309 75.0186 61.1309C75.3617 61.1309 75.703 60.9871 75.9446 60.7067C76.3848 60.1956 76.3273 59.4244 75.8162 58.9842L74.2189 57.6088V53.6017C75.7284 52.1859 76.674 50.1757 76.674 47.9477V44.6155C76.674 40.3391 73.1948 36.8601 68.9185 36.8601C64.6421 36.8601 61.1631 40.3392 61.1631 44.6155V47.9477C61.1631 50.1757 62.1088 52.1859 63.6182 53.6017V57.6086L61.6671 59.2889C61.1561 59.729 61.0986 60.5002 61.5386 61.0112C61.7801 61.2918 62.1214 61.4356 62.4646 61.4356C62.7468 61.4356 63.0305 61.3383 63.2611 61.1397L65.6363 59.094C65.9058 58.8619 66.0607 58.5241 66.0607 58.1686V55.1552C66.9457 55.5074 67.9094 55.7031 68.9185 55.7031C69.9275 55.7031 70.8912 55.5074 71.7762 55.1552V58.1688H71.7765ZM68.9188 53.2607C65.9892 53.2607 63.6059 50.8773 63.6059 47.9477V44.6155C63.6059 41.6859 65.9894 39.3026 68.9189 39.3026C71.8485 39.3026 74.2318 41.6861 74.2318 44.6155V47.9477C74.2316 50.8773 71.8484 53.2607 68.9188 53.2607Z" fill="#0F8346"/>
<path d="M82.9902 65.1629L79.8325 62.4434C79.3214 62.0032 78.5502 62.0607 78.11 62.5718C77.6699 63.083 77.7274 63.8542 78.2385 64.2943L81.3964 67.0138C81.4109 67.0264 81.4193 67.0446 81.4193 67.064V71.2524C77.7485 71.9098 73.9872 72.2785 70.239 72.3483C69.5646 72.3609 69.0282 72.9178 69.0407 73.5921C69.0531 74.2587 69.5973 74.7905 70.2614 74.7905C70.269 74.7905 70.2768 74.7905 70.2846 74.7904C74.1808 74.7179 78.091 74.333 81.9066 73.6466C83.0396 73.4429 83.862 72.4594 83.862 71.3081V67.0641C83.8617 66.3327 83.544 65.6398 82.9902 65.1629Z" fill="#0F8346"/>
<path d="M72.3113 20.8909H71.6703C71.2188 20.8909 70.8041 21.14 70.592 21.5388L68.7069 25.084L66.8844 21.5521C66.6749 21.146 66.2562 20.8909 65.7991 20.8909H58.2261C57.5517 20.8909 57.0049 21.4377 57.0049 22.1121C57.0049 22.7866 57.5517 23.3334 58.2261 23.3334H65.0551L66.6874 26.4966C67.0759 27.2494 67.8435 27.7205 68.6906 27.7257H68.7049C69.5465 27.7257 70.3134 27.2652 70.7091 26.5214L72.4044 23.3331C78.7306 23.2828 83.8617 18.1209 83.8617 11.783C83.8617 9.62867 83.2626 7.525 82.1291 5.69928C81.7733 5.12627 81.0202 4.95024 80.4473 5.30587C79.8743 5.66167 79.6981 6.41462 80.0539 6.98764C80.9469 8.42613 81.419 10.0843 81.419 11.783C81.4193 16.8052 77.3334 20.8909 72.3113 20.8909V20.8909Z" fill="#0F8346"/>
<path d="M11.9512 23.3327L13.6466 26.5212C14.0421 27.265 14.8091 27.7255 15.6508 27.7255H15.6651C16.5122 27.7203 17.28 27.2492 17.6683 26.4964L19.3006 23.3332H25.1384C25.8129 23.3332 26.3597 22.7864 26.3597 22.1119C26.3597 21.4374 25.8129 20.8906 25.1384 20.8906H18.5566C18.0997 20.8906 17.6809 21.1458 17.4713 21.5519L15.6487 25.0838L13.7637 21.5386C13.5517 21.1398 13.1369 20.8906 12.6854 20.8906H12.0445C7.0223 20.8906 2.93643 16.8048 2.93643 11.7826C2.93643 6.76042 7.0223 2.67471 12.0445 2.67471H72.3112C73.8414 2.67471 75.3553 3.0621 76.6892 3.79486C77.2806 4.11971 78.0228 3.90363 78.3477 3.31254C78.6725 2.72144 78.4565 1.97891 77.8654 1.65406C76.172 0.723941 74.2515 0.232178 72.3112 0.232178H12.0445C5.67549 0.232178 0.493896 5.41377 0.493896 11.7828C0.493896 18.1206 5.62501 23.2825 11.9512 23.3327V23.3327Z" fill="#0F8346"/>
<path d="M19.5285 10.8398C19.3445 11.9524 20.2975 12.9054 21.4101 12.7214C22.0842 12.6099 22.6278 12.0662 22.7393 11.3923C22.9233 10.2797 21.9703 9.3268 20.8577 9.51064C20.1837 9.62201 19.64 10.1657 19.5285 10.8398V10.8398Z" fill="#0F8346"/>
<path d="M33.4998 11.1161C33.4998 12.0139 34.2302 12.7444 35.128 12.7444C36.0259 12.7444 36.7563 12.0139 36.7563 11.1161C36.7563 10.2182 36.0259 9.48779 35.128 9.48779C34.23 9.48779 33.4998 10.2182 33.4998 11.1161Z" fill="#0F8346"/>
<path d="M64.8498 11.1161C64.8498 10.2182 64.1194 9.48779 63.2215 9.48779C62.3237 9.48779 61.5933 10.2182 61.5933 11.1161C61.5933 12.0139 62.3237 12.7444 63.2215 12.7444C64.1194 12.7444 64.8498 12.0139 64.8498 11.1161Z" fill="#0F8346"/>
<path d="M47.5994 11.1161C47.5994 12.0139 48.3298 12.7444 49.2276 12.7444C50.1255 12.7444 50.8559 12.0139 50.8559 11.1161C50.8559 10.2182 50.1255 9.48779 49.2276 9.48779C48.3298 9.48779 47.5994 10.2182 47.5994 11.1161Z" fill="#0F8346"/>
</g>
<defs>
<clipPath id="clip0">
<rect width="83.3679" height="83.3679" fill="white" transform="translate(0.493896 0.193359)"/>
</clipPath>
</defs>
</svg>
