<svg width="63" height="64" viewBox="0 0 63 64" fill="none" xmlns="http://www.w3.org/2000/svg">
<g clip-path="url(#clip0)">
<path d="M23.8835 20.6269L8.95946 5.70274H18.5213C19.8632 5.70274 20.9508 4.61506 20.9508 3.27325C20.9508 1.93144 19.8632 0.84375 18.5213 0.84375H7.95304C3.93417 0.84375 0.664551 4.11337 0.664551 8.13224V18.7005C0.664551 20.0424 1.75224 21.13 3.09405 21.13C4.43586 21.13 5.52354 20.0424 5.52354 18.7005V9.13866L20.4477 24.0628C20.9221 24.5372 21.5438 24.7743 22.1656 24.7743C22.7874 24.7743 23.4091 24.5372 23.8835 24.0628C24.8323 23.114 24.8323 21.5756 23.8835 20.6269Z" fill="black"/>
<path d="M23.8835 39.82C22.9346 38.8713 21.3964 38.8712 20.4477 39.8199L5.52354 54.744V45.1821C5.52354 43.8403 4.43586 42.7526 3.09405 42.7526C1.75224 42.7526 0.664551 43.8403 0.664551 45.1821V55.7504C0.664551 59.7693 3.93417 63.0389 7.95304 63.0389H18.5213C19.8632 63.0389 20.9508 61.9512 20.9508 60.6094C20.9508 59.2676 19.8632 58.1799 18.5213 58.1799H8.95946L23.8835 43.2559C24.8323 42.3071 24.8323 40.7687 23.8835 39.82Z" fill="black"/>
<path d="M60.4302 42.7526C59.0884 42.7526 58.0007 43.8402 58.0007 45.182V54.7439L43.0766 39.8198C42.1277 38.8709 40.5895 38.8709 39.6408 39.8198C38.6921 40.7686 38.6919 42.307 39.6408 43.2557L54.5648 58.1798H45.0029C43.6611 58.1798 42.5734 59.2675 42.5734 60.6093C42.5734 61.9512 43.6611 63.0388 45.0029 63.0388H55.5712C59.5901 63.0388 62.8597 59.7692 62.8597 55.7504V45.182C62.8597 43.8402 61.772 42.7526 60.4302 42.7526Z" fill="black"/>
<path d="M55.5713 0.84375H45.003C43.6612 0.84375 42.5735 1.93144 42.5735 3.27325C42.5735 4.61506 43.6612 5.70274 45.003 5.70274H54.5649L39.6408 20.6268C38.692 21.5756 38.692 23.114 39.6408 24.0627C40.1152 24.5372 40.7369 24.7743 41.3587 24.7743C41.9806 24.7743 42.6023 24.5372 43.0766 24.0628L58.0008 9.13866V18.7005C58.0008 20.0424 59.0885 21.13 60.4303 21.13C61.7721 21.13 62.8598 20.0424 62.8598 18.7005V8.13224C62.8598 4.11337 59.5901 0.84375 55.5713 0.84375Z" fill="black"/>
</g>
<defs>
<clipPath id="clip0">
<rect width="62.1951" height="62.1951" fill="white" transform="translate(0.664551 0.84375)"/>
</clipPath>
</defs>
</svg>
