<svg width="29" height="29" viewBox="0 0 29 29" fill="none" xmlns="http://www.w3.org/2000/svg">
<g clip-path="url(#clip0)">
<path d="M0.117133 20.2341C0.117133 23.9746 3.14925 27.0067 6.88972 27.0067C10.6302 27.0067 13.6624 23.9746 13.6624 20.2341C13.6624 16.4936 10.6302 13.4615 6.88972 13.4615C6.12099 13.4615 5.38514 13.5955 4.69627 13.8317C6.2204 5.09042 13.0369 -0.54669 6.71802 4.09276C-0.28865 9.2374 0.109629 20.0271 0.117469 20.2248C0.117469 20.2279 0.117133 20.2307 0.117133 20.2341Z" fill="#0F8346"/>
<path d="M15.0168 20.2341C15.0168 23.9746 18.0489 27.0067 21.7894 27.0067C25.53 27.0067 28.5621 23.9746 28.5621 20.2341C28.5621 16.4936 25.5299 13.4615 21.7894 13.4615C21.0206 13.4615 20.2848 13.5955 19.5959 13.8317C21.1201 5.09042 27.9366 -0.54669 21.6177 4.09276C14.611 9.2374 15.0092 20.0271 15.0171 20.2248C15.0171 20.2279 15.0168 20.2307 15.0168 20.2341Z" fill="#0F8346"/>
</g>
<defs>
<clipPath id="clip0">
<rect width="28.4509" height="28.4509" fill="white" transform="translate(0.11084 0.492188)"/>
</clipPath>
</defs>
</svg>
