<svg width="85" height="84" viewBox="0 0 85 84" fill="none" xmlns="http://www.w3.org/2000/svg">
<path d="M49.0427 70.5349H46.4375V57.7692C46.4375 57.4237 46.3003 57.0924 46.056 56.8481C45.8117 56.6038 45.4803 56.4666 45.1349 56.4666C44.7894 56.4666 44.4581 56.6038 44.2138 56.8481C43.9695 57.0924 43.8322 57.4237 43.8322 57.7692V70.5349H9.96404V44.4824H20.8019C21.1473 44.4824 21.4787 44.3452 21.723 44.1009C21.9673 43.8566 22.1045 43.5253 22.1045 43.1798C22.1045 42.8343 21.9673 42.503 21.723 42.2587C21.4787 42.0144 21.1473 41.8772 20.8019 41.8772H8.66142C8.31594 41.8772 7.98462 42.0144 7.74033 42.2587C7.49604 42.503 7.3588 42.8343 7.3588 43.1798V70.5349H4.75355C4.40807 70.5349 4.07675 70.6721 3.83246 70.9164C3.58817 71.1607 3.45093 71.4921 3.45093 71.8375V74.4428C3.45093 76.1702 4.13713 77.8268 5.35858 79.0482C6.58002 80.2697 8.23666 80.9559 9.96404 80.9559H43.8322C45.5596 80.9559 47.2163 80.2697 48.4377 79.0482C49.6592 77.8268 50.3454 76.1702 50.3454 74.4428V71.8375C50.3454 71.4921 50.2081 71.1607 49.9638 70.9164C49.7195 70.6721 49.3882 70.5349 49.0427 70.5349ZM47.7401 74.4428C47.7401 75.4792 47.3284 76.4732 46.5955 77.2061C45.8627 77.9389 44.8687 78.3506 43.8322 78.3506H41.227V77.048C41.227 76.7025 41.0898 76.3712 40.8455 76.1269C40.6012 75.8826 40.2699 75.7454 39.9244 75.7454C39.5789 75.7454 39.2476 75.8826 39.0033 76.1269C38.759 76.3712 38.6218 76.7025 38.6218 77.048V78.3506H15.1745V77.048C15.1745 76.7025 15.0373 76.3712 14.793 76.1269C14.5487 75.8826 14.2174 75.7454 13.8719 75.7454C13.5264 75.7454 13.1951 75.8826 12.9508 76.1269C12.7065 76.3712 12.5693 76.7025 12.5693 77.048V78.3506H9.96404C8.92761 78.3506 7.93363 77.9389 7.20076 77.2061C6.4679 76.4732 6.05617 75.4792 6.05617 74.4428V73.1402H47.7401V74.4428Z" fill="black"/>
<path d="M71.1872 10.6143H73.7924C74.1379 10.6143 74.4692 10.477 74.7135 10.2327C74.9578 9.98846 75.0951 9.65713 75.0951 9.31166C75.0951 8.96618 74.9578 8.63485 74.7135 8.39056C74.4692 8.14627 74.1379 8.00903 73.7924 8.00903H71.1872C70.1508 8.00903 69.1568 8.42075 68.4239 9.15362C67.691 9.88649 67.2793 10.8805 67.2793 11.9169V13.2195H65.9767C65.6312 13.2195 65.2999 13.3568 65.0556 13.6011C64.8113 13.8453 64.6741 14.1767 64.6741 14.5221C64.6741 14.8676 64.8113 15.199 65.0556 15.4432C65.2999 15.6875 65.6312 15.8248 65.9767 15.8248H67.2793V19.7326C67.2793 20.0781 67.4166 20.4094 67.6608 20.6537C67.9051 20.898 68.2365 21.0353 68.5819 21.0353C68.9274 21.0353 69.2587 20.898 69.503 20.6537C69.7473 20.4094 69.8846 20.0781 69.8846 19.7326V15.8248H71.1872C71.5327 15.8248 71.864 15.6875 72.1083 15.4432C72.3526 15.199 72.4898 14.8676 72.4898 14.5221C72.4898 14.1767 72.3526 13.8453 72.1083 13.6011C71.864 13.3568 71.5327 13.2195 71.1872 13.2195H69.8846V11.9169C69.8846 11.5714 70.0218 11.2401 70.2661 10.9958C70.5104 10.7515 70.8417 10.6143 71.1872 10.6143Z" fill="black"/>
<path d="M77.7005 2.79858H62.069C61.0326 2.79858 60.0386 3.2103 59.3057 3.94317C58.5729 4.67604 58.1611 5.67002 58.1611 6.70645V9.3117C58.1611 9.65718 58.2984 9.9885 58.5427 10.2328C58.787 10.4771 59.1183 10.6143 59.4638 10.6143C59.8092 10.6143 60.1406 10.4771 60.3849 10.2328C60.6291 9.9885 60.7664 9.65718 60.7664 9.3117V6.70645C60.7664 6.36098 60.9036 6.02965 61.1479 5.78536C61.3922 5.54107 61.7235 5.40383 62.069 5.40383H77.7005C78.046 5.40383 78.3773 5.54107 78.6216 5.78536C78.8659 6.02965 79.0031 6.36098 79.0031 6.70645V22.3379C79.0031 22.6834 78.8659 23.0147 78.6216 23.259C78.3773 23.5033 78.046 23.6406 77.7005 23.6406H62.069C61.7235 23.6406 61.3922 23.5033 61.1479 23.259C60.9036 23.0147 60.7664 22.6834 60.7664 22.3379V14.5222C60.7664 14.1767 60.6291 13.8454 60.3849 13.6011C60.1406 13.3568 59.8092 13.2196 59.4638 13.2196C59.1183 13.2196 58.787 13.3568 58.5427 13.6011C58.2984 13.8454 58.1611 14.1767 58.1611 14.5222V22.3379C58.1611 23.3744 58.5729 24.3683 59.3057 25.1012C60.0386 25.8341 61.0326 26.2458 62.069 26.2458H77.7005C78.7369 26.2458 79.7309 25.8341 80.4638 25.1012C81.1966 24.3683 81.6084 23.3744 81.6084 22.3379V6.70645C81.6084 5.67002 81.1966 4.67604 80.4638 3.94317C79.7309 3.2103 78.7369 2.79858 77.7005 2.79858V2.79858Z" fill="black"/>
<path d="M64.6741 54.9034C64.6741 55.9339 64.9797 56.9413 65.5522 57.7982C66.1247 58.655 66.9385 59.3229 67.8906 59.7172C68.8427 60.1116 69.8903 60.2148 70.9011 60.0137C71.9118 59.8127 72.8402 59.3164 73.5689 58.5877C74.2976 57.859 74.7939 56.9306 74.9949 55.9199C75.196 54.9091 75.0928 53.8615 74.6984 52.9094C74.3041 51.9573 73.6362 51.1435 72.7794 50.571C71.9225 49.9985 70.9151 49.6929 69.8846 49.6929C68.5027 49.6929 67.1773 50.2418 66.2002 51.219C65.223 52.1961 64.6741 53.5215 64.6741 54.9034ZM72.4898 54.9034C72.4898 55.4186 72.337 55.9223 72.0508 56.3508C71.7645 56.7792 71.3576 57.1131 70.8816 57.3103C70.4055 57.5075 69.8817 57.5591 69.3763 57.4586C68.8709 57.358 68.4067 57.1099 68.0424 56.7456C67.678 56.3812 67.4299 55.917 67.3294 55.4116C67.2289 54.9063 67.2804 54.3824 67.4776 53.9064C67.6748 53.4303 68.0087 53.0234 68.4372 52.7372C68.8656 52.4509 69.3693 52.2981 69.8846 52.2981C70.5755 52.2981 71.2382 52.5726 71.7268 53.0612C72.2153 53.5498 72.4898 54.2124 72.4898 54.9034Z" fill="black"/>
<path d="M77.7005 43.1799H62.069C61.0326 43.1799 60.0386 43.5917 59.3057 44.3245C58.5729 45.0574 58.1611 46.0514 58.1611 47.0878V62.7193C58.1611 63.7557 58.5729 64.7497 59.3057 65.4826C60.0386 66.2154 61.0326 66.6272 62.069 66.6272H77.7005C78.7369 66.6272 79.7309 66.2154 80.4638 65.4826C81.1966 64.7497 81.6084 63.7557 81.6084 62.7193V60.114C81.6084 59.7686 81.4711 59.4372 81.2268 59.1929C80.9825 58.9487 80.6512 58.8114 80.3057 58.8114C79.9603 58.8114 79.6289 58.9487 79.3846 59.1929C79.1403 59.4372 79.0031 59.7686 79.0031 60.114V62.7193C79.0031 63.0648 78.8659 63.3961 78.6216 63.6404C78.3773 63.8847 78.046 64.0219 77.7005 64.0219H62.069C61.7235 64.0219 61.3922 63.8847 61.1479 63.6404C60.9036 63.3961 60.7664 63.0648 60.7664 62.7193V47.0878C60.7664 46.7423 60.9036 46.411 61.1479 46.1667C61.3922 45.9224 61.7235 45.7852 62.069 45.7852H77.7005C78.046 45.7852 78.3773 45.9224 78.6216 46.1667C78.8659 46.411 79.0031 46.7423 79.0031 47.0878V54.9035C79.0031 55.249 79.1403 55.5803 79.3846 55.8246C79.6289 56.0689 79.9603 56.2062 80.3057 56.2062C80.6512 56.2062 80.9825 56.0689 81.2268 55.8246C81.4711 55.5803 81.6084 55.249 81.6084 54.9035V47.0878C81.6084 46.0514 81.1966 45.0574 80.4638 44.3245C79.7309 43.5917 78.7369 43.1799 77.7005 43.1799V43.1799Z" fill="black"/>
<path d="M32.7209 18.2346C32.9282 18.3631 33.1674 18.4308 33.4113 18.43C33.6152 18.4288 33.816 18.3797 33.9974 18.2867L41.8132 14.3788C42.0266 14.2695 42.2056 14.1034 42.3307 13.8989C42.4557 13.6943 42.5219 13.4592 42.5219 13.2195C42.5219 12.9797 42.4557 12.7447 42.3307 12.5401C42.2056 12.3355 42.0266 12.1695 41.8132 12.0602L33.9974 8.15229C33.7992 8.05236 33.5786 8.00479 33.3567 8.01408C33.1349 8.02337 32.9191 8.08923 32.7298 8.20539C32.5406 8.32154 32.3842 8.48415 32.2755 8.67776C32.1667 8.87138 32.1093 9.08957 32.1086 9.31162V17.1274C32.1082 17.3487 32.1642 17.5666 32.2713 17.7603C32.3784 17.954 32.5332 18.1173 32.7209 18.2346V18.2346ZM34.7139 11.4219L38.3091 13.2195L34.7139 15.0171V11.4219Z" fill="black"/>
<path d="M36.0166 24.9431C38.3353 24.9431 40.6019 24.2555 42.5299 22.9673C44.4578 21.6791 45.9604 19.8481 46.8478 17.7059C47.7351 15.5637 47.9673 13.2065 47.5149 10.9323C47.0626 8.65814 45.946 6.5692 44.3064 4.92962C42.6668 3.29004 40.5779 2.17348 38.3037 1.72112C36.0296 1.26876 33.6724 1.50093 31.5301 2.38826C29.3879 3.27559 27.557 4.77824 26.2688 6.70618C24.9805 8.63411 24.293 10.9008 24.293 13.2195C24.293 16.3288 25.5281 19.3107 27.7267 21.5093C29.9253 23.7079 32.9073 24.9431 36.0166 24.9431V24.9431ZM36.0166 4.1011C37.82 4.1011 39.583 4.63588 41.0825 5.63782C42.582 6.63976 43.7507 8.06385 44.4408 9.73002C45.131 11.3962 45.3116 13.2296 44.9597 14.9984C44.6079 16.7672 43.7395 18.3919 42.4642 19.6671C41.189 20.9423 39.5643 21.8108 37.7955 22.1626C36.0267 22.5145 34.1933 22.3339 32.5271 21.6437C30.861 20.9536 29.4369 19.7849 28.4349 18.2854C27.433 16.7858 26.8982 15.0229 26.8982 13.2195C26.8982 10.8011 27.8589 8.48183 29.5689 6.77181C31.2789 5.06178 33.5982 4.1011 36.0166 4.1011V4.1011Z" fill="black"/>
<path d="M49.0429 30.1534C49.2451 30.1534 49.4445 30.1063 49.6254 30.0159C49.8063 29.9254 49.9636 29.7941 50.085 29.6323L53.9928 24.4219C54.2001 24.1455 54.2891 23.7981 54.2403 23.4561C54.1914 23.1141 54.0087 22.8055 53.7323 22.5982C53.4559 22.3909 53.1085 22.3019 52.7665 22.3507C52.4245 22.3996 52.1159 22.5823 51.9086 22.8587L48.0008 28.0692C47.7935 28.3456 47.7045 28.693 47.7533 29.035C47.8022 29.377 47.9849 29.6856 48.2613 29.8929C48.4868 30.062 48.761 30.1534 49.0429 30.1534Z" fill="black"/>
<path d="M51.9085 34.8431C52.0298 35.0049 52.1872 35.1362 52.368 35.2267C52.5489 35.3171 52.7483 35.3642 52.9506 35.3642C53.2324 35.3642 53.5067 35.2728 53.7321 35.1037L58.9426 31.1958C59.219 30.9885 59.4017 30.6799 59.4506 30.3379C59.4995 29.9959 59.4105 29.6485 59.2032 29.3721C58.9959 29.0957 58.6873 28.913 58.3453 28.8642C58.0033 28.8153 57.6559 28.9043 57.3795 29.1116L52.169 33.0195C51.8926 33.2268 51.7099 33.5353 51.661 33.8774C51.6122 34.2194 51.7012 34.5668 51.9085 34.8431V34.8431Z" fill="black"/>
<path d="M64.6743 37.7087C64.6434 37.536 64.5778 37.3714 64.4817 37.2246C64.3855 37.0779 64.2607 36.9521 64.1147 36.8548C63.9687 36.7574 63.8046 36.6906 63.6321 36.6583C63.4597 36.626 63.2825 36.6288 63.1112 36.6666L56.598 37.9693C56.427 37.9864 56.261 38.037 56.1095 38.1183C55.958 38.1995 55.824 38.3099 55.7151 38.4429C55.4952 38.7116 55.3911 39.0567 55.4257 39.4022C55.4602 39.7476 55.6306 40.0652 55.8993 40.2851C56.168 40.505 56.5131 40.6091 56.8586 40.5745H57.1191L63.6322 39.2719C63.8049 39.2409 63.9696 39.1754 64.1163 39.0792C64.2631 38.9831 64.3889 38.8583 64.4862 38.7123C64.5835 38.5663 64.6504 38.4022 64.6827 38.2297C64.715 38.0573 64.7122 37.8801 64.6743 37.7087Z" fill="black"/>
<path d="M4.75355 37.9694H20.385C20.7305 37.9694 21.0618 37.8322 21.3061 37.5879C21.5504 37.3436 21.6877 37.0123 21.6877 36.6668V15.8248C21.6877 15.4794 21.5504 15.148 21.3061 14.9037C21.0618 14.6595 20.7305 14.5222 20.385 14.5222H4.75355C4.40807 14.5222 4.07675 14.6595 3.83246 14.9037C3.58817 15.148 3.45093 15.4794 3.45093 15.8248V36.6668C3.45093 37.0123 3.58817 37.3436 3.83246 37.5879C4.07675 37.8322 4.40807 37.9694 4.75355 37.9694ZM6.05617 17.1275H19.0824V35.3642H6.05617V17.1275Z" fill="black"/>
<path d="M15.1747 19.7327H12.5695C12.224 19.7327 11.8927 19.8699 11.6484 20.1142C11.4041 20.3585 11.2668 20.6898 11.2668 21.0353C11.2668 21.3808 11.4041 21.7121 11.6484 21.9564C11.8927 22.2007 12.224 22.3379 12.5695 22.3379H15.1747C15.5202 22.3379 15.8515 22.2007 16.0958 21.9564C16.3401 21.7121 16.4773 21.3808 16.4773 21.0353C16.4773 20.6898 16.3401 20.3585 16.0958 20.1142C15.8515 19.8699 15.5202 19.7327 15.1747 19.7327Z" fill="black"/>
<path d="M15.1745 24.9431H9.964C9.61852 24.9431 9.2872 25.0804 9.04291 25.3246C8.79862 25.5689 8.66138 25.9003 8.66138 26.2457C8.66138 26.5912 8.79862 26.9225 9.04291 27.1668C9.2872 27.4111 9.61852 27.5484 9.964 27.5484H15.1745C15.52 27.5484 15.8513 27.4111 16.0956 27.1668C16.3399 26.9225 16.4771 26.5912 16.4771 26.2457C16.4771 25.9003 16.3399 25.5689 16.0956 25.3246C15.8513 25.0804 15.52 24.9431 15.1745 24.9431Z" fill="black"/>
<path d="M15.1745 30.1536H9.964C9.61852 30.1536 9.2872 30.2908 9.04291 30.5351C8.79862 30.7794 8.66138 31.1107 8.66138 31.4562C8.66138 31.8017 8.79862 32.133 9.04291 32.3773C9.2872 32.6216 9.61852 32.7588 9.964 32.7588H15.1745C15.52 32.7588 15.8513 32.6216 16.0956 32.3773C16.3399 32.133 16.4771 31.8017 16.4771 31.4562C16.4771 31.1107 16.3399 30.7794 16.0956 30.5351C15.8513 30.2908 15.52 30.1536 15.1745 30.1536Z" fill="black"/>
<path d="M47.8964 37.5787C47.8109 37.4298 47.6969 37.2993 47.5609 37.1946C47.425 37.0898 47.2697 37.0128 47.104 36.9681C46.9382 36.9233 46.7653 36.9116 46.5951 36.9337C46.4249 36.9558 46.2607 37.0112 46.1118 37.0967C45.963 37.1822 45.8325 37.2962 45.7277 37.4322C45.623 37.5682 45.546 37.7235 45.5013 37.8892C45.4565 38.0549 45.4448 38.2278 45.4669 38.398C45.489 38.5682 45.5443 38.7325 45.6299 38.8813L51.3744 48.8203L30.5325 56.636C30.5325 56.636 30.5325 56.636 30.4413 56.636H30.3371L26.9503 58.59L24.6967 59.8926C24.4 60.0641 24.0724 60.1754 23.7327 60.2201C23.3929 60.2648 23.0477 60.2421 22.7167 60.1531C22.0519 59.9735 21.4852 59.538 21.1406 58.9417L18.5353 54.4346C18.2288 53.8449 18.1592 53.1604 18.3409 52.5211C18.5225 51.8819 18.9415 51.3361 19.5123 50.9957L24.0194 48.3904L27.2759 54.0308C27.3907 54.2296 27.5559 54.3945 27.7549 54.5089C27.954 54.6233 28.1797 54.683 28.4092 54.6821C28.6383 54.683 28.8636 54.6235 29.0623 54.5095C29.2611 54.3956 29.4262 54.2312 29.5412 54.033C29.6561 53.8349 29.7168 53.6099 29.717 53.3808C29.7172 53.1517 29.657 52.9266 29.5425 52.7282L26.1817 46.9185L42.5296 33.4363L43.0637 34.3612C43.1492 34.51 43.2632 34.6405 43.3992 34.7453C43.5352 34.8501 43.6905 34.927 43.8562 34.9718C44.0219 35.0165 44.1948 35.0282 44.365 35.0061C44.5353 34.9841 44.6995 34.9287 44.8483 34.8432C44.9971 34.7576 45.1276 34.6436 45.2324 34.5076C45.3372 34.3717 45.4141 34.2164 45.4589 34.0507C45.5036 33.885 45.5153 33.7121 45.4933 33.5418C45.4712 33.3716 45.4158 33.2074 45.3303 33.0586L44.0276 30.805C43.9322 30.6418 43.8023 30.5014 43.6471 30.3934C43.4919 30.2854 43.3151 30.2125 43.1288 30.1798C42.9416 30.1445 42.7489 30.1507 42.5644 30.198C42.3798 30.2452 42.2079 30.3324 42.0607 30.4533L23.824 45.4856L18.2748 48.69C17.2789 49.2701 16.5035 50.1639 16.0698 51.2316C15.6361 52.2994 15.5686 53.4808 15.878 54.5909L14.5753 55.3334C13.9042 55.7188 13.3626 56.2949 13.0192 56.9885C12.6758 57.6821 12.5461 58.4621 12.6466 59.2295C12.7471 59.9969 13.0731 60.7172 13.5835 61.2991C14.0938 61.881 14.7655 62.2982 15.5132 62.4978C15.8447 62.5857 16.1863 62.6295 16.5293 62.6281C17.2145 62.6253 17.8875 62.4458 18.4832 62.1071L19.7858 61.3646C20.4116 62.011 21.1985 62.4787 22.0654 62.7193C22.5106 62.8438 22.971 62.9052 23.4332 62.9017C24.3488 62.9038 25.2483 62.6609 26.0384 62.1982L27.1717 61.5469L29.7769 66.067C30.2947 66.9622 31.1462 67.6156 32.1448 67.8842C33.1434 68.1528 34.2077 68.0146 35.1047 67.4999C35.5497 67.2435 35.9397 66.902 36.2526 66.4947C36.5655 66.0875 36.795 65.6225 36.9281 65.1265C37.0612 64.6305 37.0952 64.1131 37.0282 63.604C36.9612 63.0948 36.7944 62.6039 36.5376 62.1592L34.1668 58.0299L53.7061 50.6961C53.8833 50.6295 54.0439 50.525 54.1766 50.3901C54.3094 50.2551 54.4111 50.0928 54.4747 49.9145C54.5381 49.7383 54.5628 49.5505 54.547 49.364C54.5313 49.1774 54.4755 48.9964 54.3835 48.8333L47.8964 37.5787ZM17.1285 59.8405C16.9801 59.9263 16.8163 59.9819 16.6465 60.0043C16.4766 60.0266 16.304 60.0152 16.1385 59.9708C15.8047 59.8841 15.519 59.6686 15.3439 59.3716C15.2581 59.2232 15.2025 59.0594 15.1801 58.8895C15.1578 58.7197 15.1692 58.547 15.2136 58.3816C15.2581 58.2152 15.3351 58.0593 15.4402 57.923C15.5453 57.7866 15.6764 57.6724 15.8259 57.587L16.9591 56.9356L18.2618 59.1892L17.1285 59.8405ZM34.271 63.4878C34.3568 63.6362 34.4124 63.8 34.4348 63.9699C34.4571 64.1397 34.4457 64.3124 34.4013 64.4778C34.3084 64.809 34.0883 65.0899 33.789 65.2594C33.4915 65.4303 33.1385 65.4769 32.8068 65.3891C32.4751 65.3013 32.1915 65.0862 32.0175 64.7905L29.4122 60.2704L31.5746 59.0329H31.6788L34.271 63.4878Z" fill="black"/>
</svg>
