<svg width="30" height="29" viewBox="0 0 30 29" fill="none" xmlns="http://www.w3.org/2000/svg">
<g clip-path="url(#clip0)">
<path d="M0.870795 20.2341C0.870795 23.9746 3.90291 27.0067 7.64338 27.0067C11.3839 27.0067 14.416 23.9746 14.416 20.2341C14.416 16.4936 11.3839 13.4615 7.64338 13.4615C6.87466 13.4615 6.1388 13.5955 5.44994 13.8317C6.97406 5.09042 13.7905 -0.54669 7.47168 4.09276C0.465012 9.2374 0.863291 20.0271 0.871131 20.2248C0.871131 20.2279 0.870795 20.2307 0.870795 20.2341Z" fill="white"/>
<path d="M15.7705 20.2341C15.7705 23.9746 18.8026 27.0067 22.5431 27.0067C26.2836 27.0067 29.3157 23.9746 29.3157 20.2341C29.3157 16.4936 26.2836 13.4615 22.543 13.4615C21.7743 13.4615 21.0385 13.5955 20.3496 13.8317C21.8737 5.09042 28.6902 -0.54669 22.3714 4.09276C15.3647 9.2374 15.7629 20.0271 15.7708 20.2248C15.7708 20.2279 15.7705 20.2307 15.7705 20.2341Z" fill="white"/>
</g>
<defs>
<clipPath id="clip0">
<rect width="28.4509" height="28.4509" fill="white" transform="translate(0.864746 0.492188)"/>
</clipPath>
</defs>
</svg>
