<svg width="63" height="64" viewBox="0 0 63 64" fill="none" xmlns="http://www.w3.org/2000/svg">
<path d="M26.6432 13.865V13.7124C26.6432 12.0478 25.9951 10.4832 24.8172 9.30534C23.7483 8.23539 22.3255 7.64648 20.8125 7.64648C19.3548 7.64648 17.9806 8.19361 16.9253 9.19067C15.8699 8.19361 14.4958 7.64648 13.0381 7.64648C11.525 7.64648 10.1023 8.23539 9.03328 9.30534C7.85546 10.4832 7.20728 12.0478 7.20728 13.7124V13.865C7.20728 15.7484 8.01484 17.5462 9.422 18.7969L16.9253 25.4673L24.4275 18.7979C25.8357 17.5472 26.6432 15.7493 26.6432 13.865V13.865ZM16.9253 22.8668L10.7135 17.345C9.72035 16.4626 9.15087 15.1944 9.15087 13.865V13.7124C9.15087 12.5667 9.59693 11.4899 10.4074 10.6795C11.11 9.97686 12.0449 9.59008 13.0381 9.59008C14.0312 9.59008 14.9661 9.97686 15.6687 10.6795L16.9253 11.936L18.1818 10.6795C19.587 9.27522 22.0379 9.27522 23.4431 10.6795C24.2536 11.4899 24.6996 12.5667 24.6996 13.7124V13.865C24.6996 15.1935 24.1302 16.4626 23.137 17.345L16.9253 22.8668Z" fill="black"/>
<path d="M58.7126 9.58982H32.474V4.73082C32.474 3.12347 31.166 1.81543 29.5586 1.81543H4.29186C2.68451 1.81543 1.37646 3.12347 1.37646 4.73082V26.1104C1.37646 27.7177 2.68451 29.0258 4.29186 29.0258H12.5832L14.2032 30.9694H6.23546C4.6281 30.9694 3.32006 32.2774 3.32006 33.8848V53.3207C3.32006 54.9281 4.6281 56.2361 6.23546 56.2361H16.4704L20.6414 61.2409C21.0787 61.7657 21.7211 62.0669 22.4042 62.0669C23.6695 62.0669 24.6996 61.0368 24.6996 59.7715V56.2361H35.3894C36.9968 56.2361 38.3048 54.9281 38.3048 53.3207V36.8002H40.2484V40.3356C40.2484 41.6009 41.2785 42.631 42.5438 42.631C43.227 42.631 43.8693 42.3297 44.3066 41.8049L48.4776 36.8002H58.7126C60.3199 36.8002 61.628 35.4921 61.628 33.8848V12.5052C61.628 10.8979 60.3199 9.58982 58.7126 9.58982ZM4.29186 27.0822C3.7564 27.0822 3.32006 26.6468 3.32006 26.1104V4.73082C3.32006 4.19439 3.7564 3.75903 4.29186 3.75903H29.5586C30.0941 3.75903 30.5304 4.19439 30.5304 4.73082V26.1104C30.5304 26.6468 30.0941 27.0822 29.5586 27.0822H18.8688V32.5612C18.8688 32.8615 18.4393 33.017 18.2469 32.7857L13.4928 27.0822H4.29186ZM26.6432 30.9694H20.8124V29.0258H26.6432V30.9694ZM36.3612 53.3207C36.3612 53.8572 35.9249 54.2925 35.3894 54.2925H22.756V59.7715C22.756 60.0718 22.3265 60.2273 22.1341 59.996L17.38 54.2925H6.23546C5.7 54.2925 5.26366 53.8572 5.26366 53.3207V33.8848C5.26366 33.3483 5.7 32.913 6.23546 32.913H15.8222L16.7542 34.0305C17.1915 34.5553 17.8339 34.8566 18.517 34.8566C19.6618 34.8566 20.6054 34.0111 20.7765 32.913H26.6432V33.8848C26.6432 35.4921 27.9513 36.8002 29.5586 36.8002H36.3612V53.3207ZM59.6844 33.8848C59.6844 34.4212 59.248 34.8566 58.7126 34.8566H47.568L42.8139 40.5601C42.6215 40.7894 42.192 40.6349 42.192 40.3356V34.8566H29.5586C29.0232 34.8566 28.5868 34.4212 28.5868 33.8848V29.0258H29.5586C31.166 29.0258 32.474 27.7177 32.474 26.1104V11.5334H58.7126C59.248 11.5334 59.6844 11.9688 59.6844 12.5052V33.8848Z" fill="black"/>
<path d="M24.6996 42.6311C24.6996 43.2074 24.8338 43.7496 25.0592 44.2414C24.6404 43.8701 24.1739 43.5533 23.6695 43.3016C24.3032 42.6097 24.6996 41.6972 24.6996 40.6875C24.6996 38.5437 22.9562 36.8003 20.8125 36.8003C18.6687 36.8003 16.9253 38.5437 16.9253 40.6875C16.9253 41.6972 17.3218 42.6097 17.9554 43.3016C17.451 43.5533 16.9845 43.8701 16.5657 44.2414C16.7911 43.7496 16.9253 43.2074 16.9253 42.6311C16.9253 40.4873 15.1819 38.7439 13.0381 38.7439C10.8943 38.7439 9.15087 40.4873 9.15087 42.6311C9.15087 43.667 9.56389 44.6029 10.2267 45.3006C8.42883 46.2948 7.20728 48.2092 7.20728 50.4055V52.3491H9.15087V50.4055C9.15087 48.2617 10.8943 46.5183 13.0381 46.5183C13.6503 46.5183 14.2373 46.664 14.7718 46.9313C14.6182 47.3754 14.5055 47.8399 14.4511 48.3248L14.0157 52.2412L15.9467 52.456L16.382 48.5396C16.6337 46.2792 18.5384 44.5747 20.8125 44.5747C23.0865 44.5747 24.9912 46.2792 25.2429 48.5396L25.6782 52.456L27.6092 52.2412L27.1738 48.3248C27.1204 47.8399 27.0067 47.3754 26.8531 46.9313C27.3876 46.664 27.9746 46.5183 28.5868 46.5183C30.7306 46.5183 32.474 48.2617 32.474 50.4055V52.3491H34.4176V50.4055C34.4176 48.2092 33.1961 46.2948 31.3982 45.3006C32.061 44.6029 32.474 43.667 32.474 42.6311C32.474 40.4873 30.7306 38.7439 28.5868 38.7439C26.443 38.7439 24.6996 40.4873 24.6996 42.6311ZM11.0945 42.6311C11.0945 41.5592 11.9662 40.6875 13.0381 40.6875C14.11 40.6875 14.9817 41.5592 14.9817 42.6311C14.9817 43.703 14.11 44.5747 13.0381 44.5747C11.9662 44.5747 11.0945 43.703 11.0945 42.6311ZM18.8689 40.6875C18.8689 39.6156 19.7406 38.7439 20.8125 38.7439C21.8843 38.7439 22.756 39.6156 22.756 40.6875C22.756 41.7594 21.8843 42.6311 20.8125 42.6311C19.7406 42.6311 18.8689 41.7594 18.8689 40.6875ZM30.5304 42.6311C30.5304 43.703 29.6587 44.5747 28.5868 44.5747C27.5149 44.5747 26.6432 43.703 26.6432 42.6311C26.6432 41.5592 27.5149 40.6875 28.5868 40.6875C29.6587 40.6875 30.5304 41.5592 30.5304 42.6311Z" fill="black"/>
<path d="M51.9101 19.3081H50.1414L50.3756 17.9048C50.5593 16.7999 50.2503 15.6765 49.5263 14.8223C48.8023 13.9671 47.745 13.4773 46.6255 13.4773C45.2853 13.4773 44.1221 14.3859 43.7966 15.6852C43.4448 17.0943 42.7159 18.381 41.6887 19.4092L41.402 19.6958C41.0784 19.4558 40.6819 19.3081 40.2485 19.3081H36.3613C35.2894 19.3081 34.4177 20.1798 34.4177 21.2517V30.9697C34.4177 32.0416 35.2894 32.9133 36.3613 32.9133H40.2485C41.0969 32.9133 41.8112 32.3642 42.0765 31.6052C43.8004 32.4604 45.6945 32.9133 47.639 32.9133H51.9101C54.0539 32.9133 55.7973 31.1699 55.7973 29.0261V23.1953C55.7973 21.0515 54.0539 19.3081 51.9101 19.3081ZM36.3613 30.9697V21.2517H40.2485L40.2495 30.9697H36.3613ZM53.8537 29.0261C53.8537 30.098 52.982 30.9697 51.9101 30.9697H47.639C45.71 30.9697 43.8393 30.4439 42.1921 29.4556V21.654L43.0628 20.7833C44.3388 19.5073 45.2455 17.9068 45.6828 16.1565C45.7907 15.7241 46.1784 15.4209 46.6255 15.4209C47.1726 15.4209 47.6896 15.66 48.0433 16.0788C48.397 16.4967 48.5486 17.0457 48.4583 17.5861L47.848 21.2517H51.9101C52.982 21.2517 53.8537 22.1234 53.8537 23.1953V29.0261Z" fill="black"/>
</svg>
